grf
version=1
nRows=16
nColumns=73
inDegrees=yes
endheader
time	ground_force_1_vx	ground_force_1_vy	ground_force_1_vz	ground_force_1_px	ground_force_1_py	ground_force_1_pz	ground_moment_1_mx	ground_moment_1_my	ground_moment_1_mz	ground_force_2_vx	ground_force_2_vy	ground_force_2_vz	ground_force_2_px	ground_force_2_py	ground_force_2_pz	ground_moment_2_mx	ground_moment_2_my	ground_moment_2_mz	ground_force_3_vx	ground_force_3_vy	ground_force_3_vz	ground_force_3_px	ground_force_3_py	ground_force_3_pz	ground_moment_3_mx	ground_moment_3_my	ground_moment_3_mz	ground_force_4_vx	ground_force_4_vy	ground_force_4_vz	ground_force_4_px	ground_force_4_py	ground_force_4_pz	ground_moment_4_mx	ground_moment_4_my	ground_moment_4_mz	ground_force_5_vx	ground_force_5_vy	ground_force_5_vz	ground_force_5_px	ground_force_5_py	ground_force_5_pz	ground_moment_5_mx	ground_moment_5_my	ground_moment_5_mz	ground_force_6_vx	ground_force_6_vy	ground_force_6_vz	ground_force_6_px	ground_force_6_py	ground_force_6_pz	ground_moment_6_mx	ground_moment_6_my	ground_moment_6_mz	ground_force_7_vx	ground_force_7_vy	ground_force_7_vz	ground_force_7_px	ground_force_7_py	ground_force_7_pz	ground_moment_7_mx	ground_moment_7_my	ground_moment_7_mz	ground_force_8_vx	ground_force_8_vy	ground_force_8_vz	ground_force_8_px	ground_force_8_py	ground_force_8_pz	ground_moment_8_mx	ground_moment_8_my	ground_moment_8_mz
2.359000	-3.897175	423.294637	11.744309	0.436925	0.000000	0.321117	-0.000000	-0.386863	-0.000000	0.000000	0.000000	0.000000	0.000000	0.000000	0.000000	0.000000	0.000000	0.000000	-5.944680	375.284951	5.531565	0.453246	0.000000	0.324270	0.000000	-1.120950	-0.000000	1.931630	47.800553	6.235781	0.337680	0.000000	0.318074	0.000000	0.201148	0.000000	-6.075456	371.350734	5.175591	0.453684	0.000000	0.322026	0.000000	-1.047535	0.000000	1.761927	48.712379	6.045045	0.344103	0.000000	0.319959	-0.000000	0.140859	0.000000	-3.954839	417.033460	10.586378	0.439379	0.000000	0.321560	0.000000	-0.347167	0.000000	0.000000	0.000000	0.000000	0.000000	0.000000	0.000000	0.000000	0.000000	0.000000
2.360000	-3.721082	423.803002	11.883545	0.436022	0.000000	0.321187	-0.000000	-0.393748	-0.000000	0.000000	0.000000	0.000000	0.000000	0.000000	0.000000	0.000000	0.000000	0.000000	-5.890497	375.958673	5.621279	0.452238	0.000000	0.324353	0.000000	-1.137297	-0.000000	2.064432	47.671682	6.282763	0.337020	0.000000	0.318225	0.000000	0.207065	0.000000	-6.012019	371.855587	5.260873	0.452739	0.000000	0.322086	0.000000	-1.062594	0.000000	1.908651	48.667810	6.116980	0.342942	0.000000	0.320218	-0.000000	0.147470	0.000000	-3.747504	417.485254	10.742664	0.438487	0.000000	0.321612	0.000000	-0.348679	0.000000	0.000000	0.000000	0.000000	0.000000	0.000000	0.000000	0.000000	0.000000	0.000000
2.361000	-3.556846	424.330646	12.016824	0.435117	0.000000	0.321257	-0.000000	-0.401391	-0.000000	0.000000	0.000000	0.000000	0.000000	0.000000	0.000000	0.000000	0.000000	0.000000	-5.838543	376.690006	5.712838	0.451206	0.000000	0.324439	0.000000	-1.153800	-0.000000	2.187356	47.501016	6.322059	0.336453	0.000000	0.318337	0.000000	0.213657	0.000000	-5.949156	372.426801	5.348126	0.451767	0.000000	0.322150	0.000000	-1.078430	0.000000	2.042910	48.570103	6.182041	0.341850	0.000000	0.320425	-0.000000	0.154472	-0.000000	-3.552572	417.951214	10.894225	0.437595	0.000000	0.321664	0.000000	-0.351621	0.000000	0.000000	0.000000	0.000000	0.000000	0.000000	0.000000	0.000000	0.000000	0.000000
2.362000	-3.404571	424.881736	12.142431	0.434212	0.000000	0.321329	-0.000000	-0.409867	-0.000000	0.000000	0.000000	0.000000	0.000000	0.000000	0.000000	0.000000	0.000000	0.000000	-5.789157	377.477513	5.805872	0.450155	0.000000	0.324528	0.000000	-1.170293	-0.000000	2.300522	47.294235	6.352345	0.335972	0.000000	0.318412	-0.000000	0.220776	-0.000000	-5.888171	373.062258	5.436707	0.450771	0.000000	0.322217	0.000000	-1.094699	0.000000	2.166004	48.423115	6.239602	0.340855	0.000000	0.320583	-0.000000	0.162213	-0.000000	-3.370118	418.433033	11.039774	0.436706	0.000000	0.321715	0.000000	-0.355430	0.000000	0.000000	0.000000	0.000000	0.000000	0.000000	0.000000	0.000000	0.000000	0.000000
2.363000	-3.264482	425.461012	12.258228	0.433309	0.000000	0.321401	-0.000000	-0.419393	-0.000000	0.000000	0.000000	0.000000	0.000000	0.000000	0.000000	0.000000	0.000000	0.000000	-5.742390	378.320184	5.899616	0.449090	0.000000	0.324621	0.000000	-1.186447	-0.000000	2.403671	47.057204	6.372259	0.335565	0.000000	0.318457	-0.000000	0.227938	-0.000000	-5.829983	373.760278	5.526647	0.449753	0.000000	0.322285	0.000000	-1.111220	0.000000	2.279067	48.231312	6.288643	0.339974	0.000000	0.320698	-0.000000	0.170966	-0.000000	-3.199997	418.933449	11.178306	0.435820	0.000000	0.321766	0.000000	-0.359810	0.000000	0.000000	0.000000	0.000000	0.000000	0.000000	0.000000	0.000000	0.000000	0.000000
2.364000	-3.136168	426.073442	12.362470	0.432411	0.000000	0.321475	0.000000	-0.430266	-0.000000	0.000000	0.000000	0.000000	0.000000	0.000000	0.000000	0.000000	0.000000	0.000000	-5.697735	379.217600	5.993504	0.448019	0.000000	0.324717	0.000000	-1.201851	-0.000000	2.496634	46.795454	6.380631	0.335217	0.000000	0.318473	-0.000000	0.234463	-0.000000	-5.775143	374.519314	5.617831	0.448718	0.000000	0.322356	0.000000	-1.127854	0.000000	2.382616	47.999863	6.327806	0.339216	0.000000	0.320777	-0.000000	0.180692	-0.000000	-3.042305	419.456028	11.308329	0.434940	0.000000	0.321818	0.000000	-0.364813	0.000000	0.000000	0.000000	0.000000	0.000000	0.000000	0.000000	0.000000	0.000000	0.000000
2.365000	-3.018086	426.723294	12.453873	0.431520	0.000000	0.321552	0.000000	-0.442744	-0.000000	0.000000	0.000000	0.000000	0.000000	0.000000	0.000000	0.000000	0.000000	0.000000	-5.653991	380.169482	6.087336	0.446945	0.000000	0.324816	0.000000	-1.216065	-0.000000	2.579702	46.513701	6.376380	0.334915	0.000000	0.318461	-0.000000	0.239677	-0.000000	-5.723917	375.337908	5.709632	0.447671	0.000000	0.322429	0.000000	-1.144327	0.000000	2.476646	47.734275	6.355679	0.338578	0.000000	0.320824	-0.000000	0.190941	-0.000000	-2.897375	420.004767	11.427789	0.434069	0.000000	0.321870	0.000000	-0.370725	0.000000	0.000000	0.000000	0.000000	0.000000	0.000000	0.000000	0.000000	0.000000	0.000000
2.366000	-2.907823	427.413030	12.530984	0.430637	0.000000	0.321630	0.000000	-0.456831	-0.000000	0.000000	0.000000	0.000000	0.000000	0.000000	0.000000	0.000000	0.000000	0.000000	-5.609598	381.174958	6.180814	0.445874	0.000000	0.324918	0.000000	-1.228580	-0.000000	2.653691	46.215462	6.358352	0.334646	0.000000	0.318424	-0.000000	0.243112	-0.000000	-5.676116	376.215049	5.801392	0.446617	0.000000	0.322504	0.000000	-1.160239	0.000000	2.561091	47.439977	6.371058	0.338055	0.000000	0.320841	-0.000000	0.200966	-0.000000	-2.765142	420.584020	11.534812	0.433209	0.000000	0.321923	0.000000	-0.377954	0.000000	0.000000	0.000000	0.000000	0.000000	0.000000	0.000000	0.000000	0.000000	0.000000
2.367000	-2.802737	428.143092	12.591880	0.429763	0.000000	0.321709	0.000000	-0.472217	-0.000000	0.000000	0.000000	0.000000	0.000000	0.000000	0.000000	0.000000	0.000000	0.000000	-5.563079	382.232371	6.273227	0.444808	0.000000	0.325021	0.000000	-1.238888	-0.000000	2.719745	45.903038	6.325338	0.334401	0.000000	0.318363	-0.000000	0.244631	-0.000000	-5.630836	377.150133	5.892914	0.445565	0.000000	0.322582	0.000000	-1.175161	0.000000	2.636250	47.121842	6.372885	0.337636	0.000000	0.320830	-0.000000	0.209947	-0.000000	-2.644451	421.198002	11.628125	0.432363	0.000000	0.321978	0.000000	-0.386921	0.000000	0.000000	0.000000	0.000000	0.000000	0.000000	0.000000	0.000000	0.000000	0.000000
2.368000	-2.700650	428.912810	12.634628	0.428896	0.000000	0.321787	0.000000	-0.488611	-0.000000	0.000000	0.000000	0.000000	0.000000	0.000000	0.000000	0.000000	0.000000	0.000000	-5.513285	383.339722	6.363761	0.443746	0.000000	0.325125	0.000000	-1.246733	-0.000000	2.778889	45.577955	6.276214	0.334174	0.000000	0.318279	-0.000000	0.244338	-0.000000	-5.586633	378.142377	5.984182	0.444517	0.000000	0.322662	0.000000	-1.188616	0.000000	2.702938	46.783773	6.360042	0.337310	0.000000	0.320791	-0.000000	0.217236	-0.000000	-2.533091	421.849773	11.706584	0.431533	0.000000	0.322035	0.000000	-0.397835	0.000000	0.000000	0.000000	0.000000	0.000000	0.000000	0.000000	0.000000	0.000000	0.000000
2.369000	-2.600289	429.721523	12.657958	0.428036	0.000000	0.321864	0.000000	-0.506077	-0.000000	0.000000	0.000000	0.000000	0.000000	0.000000	0.000000	0.000000	0.000000	0.000000	-5.459529	384.495067	6.451926	0.442690	0.000000	0.325228	0.000000	-1.252256	0.000000	2.831712	45.241692	6.210193	0.333955	0.000000	0.318172	-0.000000	0.242347	-0.000000	-5.541995	379.190323	6.074837	0.443477	0.000000	0.322745	0.000000	-1.200064	0.000000	2.762351	46.428613	6.331301	0.337069	0.000000	0.320727	-0.000000	0.222504	-0.000000	-2.428397	422.540665	11.768590	0.430720	0.000000	0.322094	0.000000	-0.410536	0.000000	0.000000	0.000000	0.000000	0.000000	0.000000	0.000000	0.000000	0.000000	0.000000
2.370000	-2.501015	430.568925	12.661390	0.427181	0.000000	0.321938	0.000000	-0.524927	-0.000000	0.000000	0.000000	0.000000	0.000000	0.000000	0.000000	0.000000	0.000000	0.000000	-5.401520	385.696272	6.537496	0.441639	0.000000	0.325330	0.000000	-1.255774	0.000000	2.878577	44.896274	6.127013	0.333735	0.000000	0.318038	-0.000000	0.238649	-0.000000	-5.495674	380.291900	6.164243	0.442447	0.000000	0.322829	0.000000	-1.209102	0.000000	2.815658	46.058535	6.285472	0.336900	0.000000	0.320637	-0.000000	0.225698	-0.000000	-2.327989	423.270724	11.812306	0.429923	0.000000	0.322153	0.000000	-0.424728	0.000000	0.000000	0.000000	0.000000	0.000000	0.000000	0.000000	0.000000	0.000000	0.000000
2.371000	-2.402085	431.454553	12.645127	0.426327	0.000000	0.322011	0.000000	-0.545301	-0.000000	0.000000	0.000000	0.000000	0.000000	0.000000	0.000000	0.000000	0.000000	0.000000	-5.339086	386.940372	6.620361	0.440593	0.000000	0.325430	0.000000	-1.257469	0.000000	2.920071	44.544394	6.026978	0.333502	0.000000	0.317879	-0.000000	0.233213	-0.000000	-5.446857	381.444907	6.251991	0.441426	0.000000	0.322913	0.000000	-1.215720	0.000000	2.863578	45.675723	6.221686	0.336791	0.000000	0.320522	0.000000	0.226839	-0.000000	-2.230369	424.039881	11.836445	0.429142	0.000000	0.322213	0.000000	-0.440399	0.000000	0.000000	0.000000	0.000000	0.000000	0.000000	0.000000	0.000000	0.000000	0.000000
2.372000	-2.302130	432.377270	12.610226	0.425474	0.000000	0.322082	0.000000	-0.566915	-0.000000	0.000000	0.000000	0.000000	0.000000	0.000000	0.000000	0.000000	0.000000	0.000000	-5.271794	388.223266	6.700786	0.439551	0.000000	0.325530	0.000000	-1.257405	0.000000	2.957152	44.189205	5.910869	0.333248	0.000000	0.317698	-0.000000	0.226272	-0.000000	-5.395171	382.647229	6.337995	0.440415	0.000000	0.322997	0.000000	-1.220217	0.000000	2.906460	45.282852	6.139668	0.336726	0.000000	0.320378	0.000000	0.225855	-0.000000	-2.134846	424.848645	11.840636	0.428373	0.000000	0.322273	0.000000	-0.457881	0.000000	0.000000	0.000000	0.000000	0.000000	0.000000	0.000000	0.000000	0.000000	0.000000
2.373000	-2.199056	433.335110	12.558613	0.424618	0.000000	0.322153	0.000000	-0.589170	-0.000000	0.000000	0.000000	0.000000	0.000000	0.000000	0.000000	0.000000	0.000000	0.000000	-5.198638	389.539749	6.779585	0.438511	0.000000	0.325630	0.000000	-1.255786	0.000000	2.990934	43.834126	5.779787	0.332966	0.000000	0.317505	-0.000000	0.218487	-0.000000	-5.340477	383.896294	6.422194	0.439413	0.000000	0.323082	0.000000	-1.222866	0.000000	2.944746	44.883091	6.039779	0.336688	0.000000	0.320208	0.000000	0.222648	-0.000000	-2.040862	425.697570	11.825175	0.427615	0.000000	0.322331	0.000000	-0.477443	0.000000	0.000000	0.000000	0.000000	0.000000	0.000000	0.000000	0.000000	0.000000	0.000000
2.374000	-2.090505	434.325127	12.492362	0.423757	0.000000	0.322225	0.000000	-0.611510	-0.000000	0.000000	0.000000	0.000000	0.000000	0.000000	0.000000	0.000000	0.000000	0.000000	-5.118149	390.883357	6.857649	0.437472	0.000000	0.325730	0.000000	-1.253101	0.000000	3.022337	43.482847	5.634906	0.332648	0.000000	0.317310	0.000000	0.210762	-0.000000	-5.282512	385.188412	6.504619	0.438419	0.000000	0.323168	0.000000	-1.223753	0.000000	2.979238	44.479944	5.922897	0.336662	0.000000	0.320016	0.000000	0.217354	-0.000000	-1.947377	426.586428	11.790961	0.426864	0.000000	0.322390	0.000000	-0.498894	0.000000	0.000000	0.000000	0.000000	0.000000	0.000000	0.000000	0.000000	0.000000	0.000000
